<?xml version="1.0" standalone="no"?>
<!DOCTYPE svg PUBLIC "-//W3C//DTD SVG 20010904//EN"
 "http://www.w3.org/TR/2001/REC-SVG-20010904/DTD/svg10.dtd">
<svg version="1.0" xmlns="http://www.w3.org/2000/svg"
 width="320.000000pt" height="320.000000pt" viewBox="0 0 320.000000 320.000000"
 preserveAspectRatio="xMidYMid meet">
<metadata>
Created by potrace 1.14, written by Peter Selinger 2001-2017
</metadata>
<g transform="translate(0.000000,320.000000) scale(0.100000,-0.100000)"
fill="#000000" stroke="none">
<path d="M1445 3053 c-47 -6 -187 -33 -221 -44 -17 -5 -40 -11 -50 -14 -34 -6
-153 -54 -223 -89 -294 -145 -536 -392 -675 -689 -38 -82 -102 -279 -111 -342
-3 -22 -9 -65 -14 -95 -16 -97 -6 -353 18 -462 53 -237 163 -470 297 -629 70
-84 221 -221 304 -278 152 -105 381 -203 537 -230 32 -6 72 -13 88 -17 47 -10
334 -13 390 -4 101 17 122 21 200 41 230 59 460 189 636 360 241 234 382 504
434 834 17 109 12 366 -9 470 -24 118 -26 125 -55 209 -51 148 -146 323 -236
436 -33 41 -198 203 -233 230 -19 14 -47 35 -62 48 -15 12 -32 22 -38 22 -6 0
-12 4 -14 8 -6 15 -161 97 -253 134 -96 39 -212 73 -285 84 -25 3 -70 10 -100
14 -53 8 -264 9 -325 3z"/>
</g>
</svg>
